<svg version="1.1" id="Layer_1" xmlns="http://www.w3.org/2000/svg" xmlns:xlink="http://www.w3.org/1999/xlink" x="0px" y="0px"
	 width="150px" height="100%" viewBox="0 0 2000 274" enable-background="new 0 0 2000 274" xml:space="preserve">
<path fill="#000000" opacity="1.000000" stroke="none" 
	d="
M1.320099,6.247064 
	C0.107620,1.778926 1.758365,0.885520 5.994563,0.887544 
	C268.017242,1.012723 530.039978,1.000000 792.531372,1.000000 
	C793.888184,4.785847 790.582275,4.368629 788.750366,4.847335 
	C779.646912,7.226183 771.041199,10.722486 763.158752,15.849728 
	C742.782410,29.103817 729.847351,48.057835 721.720703,70.582115 
	C715.173950,88.727257 712.124207,107.462845 711.107788,126.759048 
	C709.697327,153.535477 712.623657,179.576675 721.556152,204.833450 
	C728.692932,225.012726 739.945312,242.518250 757.168579,255.644226 
	C767.079834,263.197632 778.251099,268.301971 790.399231,271.252411 
	C792.310791,271.716736 795.003784,271.295502 795.213684,274.669922 
	C531.833313,275.000000 268.666656,274.997253 5.500005,275.035004 
	C2.564439,275.035431 -0.141577,275.305023 1.000000,270.499969 
	C2.967251,268.263611 5.388790,268.667175 7.683644,268.660339 
	C20.682503,268.621704 33.681587,268.667969 46.680450,268.630280 
	C52.313572,268.613953 52.621265,268.313568 52.629951,262.670380 
	C52.661499,242.172073 52.586414,221.673355 52.704353,201.175659 
	C52.721203,198.247589 51.166374,193.933304 54.959400,192.872910 
	C58.252438,191.952316 59.578865,196.057632 61.215054,198.430313 
	C76.161217,220.104233 90.814095,241.978424 105.651207,263.727142 
	C108.068779,267.270905 110.891083,268.757263 115.192917,268.712524 
	C131.856415,268.539215 148.522873,268.654358 165.188141,268.618622 
	C166.619186,268.615570 168.198334,269.087036 169.988098,267.389496 
	C164.845520,262.650360 160.612030,257.128723 155.732407,252.181366 
	C149.413086,245.774323 143.112671,239.343796 136.634216,233.099701 
	C121.032791,218.062683 106.822716,201.670486 91.221550,186.636719 
	C90.981613,186.405502 90.725395,186.182816 90.528542,185.917038 
	C89.405357,184.400711 86.875374,182.921616 88.463051,180.962021 
	C89.928246,179.153595 92.177849,180.720703 93.906990,181.687897 
	C116.736717,194.457626 139.566193,207.227814 162.414474,219.964294 
	C189.193130,234.891739 215.946228,249.864868 242.702118,264.833008 
	C243.429092,265.239716 244.196457,265.574341 244.919785,265.985840 
	C247.997803,267.736847 248.670410,266.199646 248.652924,263.390015 
	C248.613510,257.057556 248.640900,250.724503 248.641830,244.391678 
	C248.643265,234.725784 248.432846,225.053375 248.729965,215.396744 
	C248.879166,210.547623 246.877457,208.291397 242.476562,206.666367 
	C200.114899,191.024261 157.941177,174.878922 115.632874,159.092590 
	C113.447868,158.277313 111.262154,157.454117 109.136345,156.492416 
	C108.237167,156.085617 107.024818,155.608765 107.129196,154.521942 
	C107.264145,153.116959 108.720222,153.029449 109.830521,152.840378 
	C111.480545,152.559387 113.154602,152.631729 114.816628,152.796097 
	C139.824310,155.269531 164.852264,157.524490 189.874069,159.847214 
	C207.768845,161.508347 225.667053,163.154053 243.544632,164.980942 
	C247.881348,165.424088 248.709930,163.878021 248.683807,160.135544 
	C248.580276,145.304138 248.680511,130.471420 248.619049,115.639488 
	C248.598679,110.722343 247.832550,110.234543 242.981216,110.707367 
	C222.775177,112.676727 202.550003,114.450172 182.344727,116.421799 
	C159.158737,118.684273 135.935287,120.552986 112.774277,123.076790 
	C109.849281,123.395508 106.838676,123.894806 103.713036,121.861641 
	C105.008896,119.447639 107.277824,118.831985 109.316292,118.057495 
	C149.037811,102.965813 188.845947,88.104256 228.641068,73.208176 
	C233.790970,71.280464 238.902435,69.242630 244.090042,67.426559 
	C247.187607,66.342163 248.663879,64.530373 248.656769,61.182846 
	C248.622437,45.017677 248.684204,28.852041 248.606430,12.687066 
	C248.585358,8.309220 247.716324,7.861670 243.387634,10.353178 
	C228.802170,18.748287 214.029526,26.807529 199.342041,35.018147 
	C168.950241,52.007805 138.608475,69.087547 108.134804,85.930695 
	C103.614098,88.429344 99.160057,91.045883 94.678741,93.614189 
	C93.522194,94.277023 92.327736,94.881157 91.054077,95.291039 
	C89.770981,95.703957 88.272560,96.181511 87.342751,94.969971 
	C86.323494,93.641876 87.452408,92.356285 88.339668,91.469734 
	C93.058266,86.754906 97.176430,81.491600 101.853333,76.748146 
	C109.107559,69.390701 116.339996,62.005936 123.781113,54.839874 
	C139.505707,39.696537 153.722229,23.091875 170.070282,7.621237 
	C167.956482,7.156337 166.344376,7.368069 164.776382,7.366891 
	C148.111053,7.354373 131.444885,7.445847 114.780945,7.297117 
	C110.476074,7.258695 107.670746,8.817643 105.298767,12.398355 
	C90.942879,34.069878 76.082268,55.401848 61.589909,76.982895 
	C59.818157,79.621277 58.332382,84.032661 54.483074,82.771446 
	C51.255745,81.714035 52.712711,77.481339 52.698135,74.649933 
	C52.593452,54.318752 52.657093,33.986774 52.633358,13.655088 
	C52.626335,7.640129 52.375278,7.383243 46.500637,7.367991 
	C33.668404,7.334675 20.836000,7.374480 8.003767,7.341815 
	C5.858475,7.336353 3.641709,7.664410 1.320099,6.247064 
z"/>
<path fill="#FFFFFF" opacity="1.000000" stroke="none" 
	d="
M1.000000,6.468657 
	C17.330189,6.000004 33.661369,6.093639 49.989727,5.920810 
	C53.245377,5.886351 54.098282,6.733733 54.078617,10.002069 
	C53.933334,34.151043 53.999989,58.301292 53.999989,82.586403 
	C55.818027,82.092201 56.982334,81.453514 58.147766,79.718872 
	C73.893387,56.282867 89.912552,33.030613 105.649902,9.589131 
	C107.329964,7.086608 108.802956,5.926944 111.817093,5.943270 
	C131.978958,6.052475 152.141708,6.000005 173.341888,6.000005 
	C144.184418,35.824936 115.551598,65.113190 86.918777,94.401451 
	C87.225182,94.853653 87.531578,95.305855 87.837975,95.758057 
	C141.595657,65.740723 195.353348,35.723389 250.000000,5.209670 
	C250.000000,9.368930 250.000000,12.601689 250.000000,15.834449 
	C249.999985,31.664734 249.935455,47.495529 250.061218,63.324814 
	C250.083099,66.079178 249.156982,67.126770 246.566589,68.085953 
	C220.288300,77.816422 194.094345,87.774307 167.851913,97.602119 
	C148.657639,104.790382 129.435120,111.903717 110.197731,118.975731 
	C108.261818,119.687408 106.790810,121.419914 104.485077,121.376709 
	C110.821495,122.963631 117.088165,121.316681 123.168823,120.631470 
	C127.982666,120.089020 132.917007,119.838257 137.741272,119.244621 
	C153.829636,117.264931 170.076828,116.614014 186.203766,114.896271 
	C196.616821,113.787140 207.038849,112.888588 217.464294,111.955452 
	C226.234650,111.170464 234.974152,110.031067 243.720657,108.992561 
	C249.732742,108.278732 249.999680,108.482880 249.999847,114.719330 
	C250.000305,130.882889 249.869064,147.048309 250.100327,163.208557 
	C250.152298,166.840179 248.593933,167.877899 245.855759,166.865280 
	C241.253784,165.163406 236.443832,165.766556 231.796432,165.221909 
	C215.528824,163.315384 199.123611,162.612030 182.828720,160.899307 
	C171.917267,159.752441 160.972198,158.985321 150.083481,157.805984 
	C136.588730,156.344406 123.088043,155.070908 109.561600,154.006927 
	C108.902855,153.955093 108.236465,154.000259 106.036499,154.000259 
	C119.407845,159.011871 131.398819,163.485992 143.375107,167.999100 
	C167.499115,177.089905 191.609619,186.216614 215.737183,195.297974 
	C225.329208,198.908279 234.920715,202.524765 244.576294,205.958908 
	C248.238983,207.261597 250.238953,208.769058 250.150055,213.392380 
	C249.789124,232.166351 250.000000,250.951340 250.000000,270.415863 
	C195.948135,240.234909 142.466431,210.372330 88.597595,180.293579 
	C88.202927,182.275162 89.247620,182.702682 89.803352,183.267731 
	C112.543381,206.386948 135.326935,229.463379 158.050720,252.598541 
	C162.703156,257.335205 167.153839,262.270660 171.665192,267.144409 
	C172.192261,267.713837 172.937042,268.542572 172.842926,269.133545 
	C172.623550,270.510925 171.282043,269.976257 170.403198,269.977509 
	C150.407104,270.006348 130.410919,269.989105 110.414818,270.019165 
	C108.775116,270.021637 107.913612,269.431976 106.939468,267.990387 
	C94.381233,249.405487 81.669334,230.924545 69.048050,212.382095 
	C65.247841,206.799057 61.648338,201.079468 57.855606,195.491180 
	C57.157475,194.462524 56.350838,193.286514 54.775703,193.031540 
	C53.223553,194.310394 54.049400,196.086411 54.045135,197.574783 
	C53.980213,220.236908 53.888649,242.900345 54.107189,265.560547 
	C54.144577,269.437012 53.028446,270.136261 49.426399,270.089203 
	C33.599018,269.882385 17.767399,270.000000 1.468657,270.000000 
	C1.000000,182.312439 1.000000,94.624878 1.000000,6.468657 
z"/>
<path fill="#000000" opacity="1.000000" stroke="none" 
	d="
M1721.786621,1.336506 
	C1813.452026,1.000000 1904.904053,1.040086 1996.355713,0.873763 
	C2000.630371,0.865988 2001.103394,2.013579 2001.097900,5.851126 
	C2000.971069,94.137932 2000.975952,182.424988 2001.088989,270.711823 
	C2001.093506,274.207123 2000.508179,275.111908 1996.792358,275.106415 
	C1904.840698,274.970612 1812.889038,275.000000 1720.468628,275.000000 
	C1718.877441,272.122467 1721.299438,272.079742 1722.867554,271.638794 
	C1727.194702,270.422058 1731.636719,269.632690 1735.857544,268.012543 
	C1760.865845,258.413391 1776.655762,240.022034 1785.885132,215.441696 
	C1788.933716,207.322647 1791.309082,199.004547 1792.906128,190.446716 
	C1793.644653,186.488663 1792.279419,184.973785 1788.529907,184.446167 
	C1773.022217,182.264038 1757.568115,179.721588 1742.083374,177.383026 
	C1736.744385,176.576706 1736.565552,176.625565 1735.686401,182.100876 
	C1733.505737,195.682373 1730.127197,208.851715 1722.991699,220.803040 
	C1720.478638,225.012344 1717.315063,228.612427 1713.261475,231.393600 
	C1704.918823,237.117523 1695.104980,236.459488 1687.476929,229.819366 
	C1681.267090,224.413666 1677.169922,217.653992 1674.434692,210.000504 
	C1668.271240,192.753830 1665.497192,174.915756 1664.524292,156.659286 
	C1664.072144,148.175629 1663.319458,139.696671 1663.719849,131.222183 
	C1664.726562,109.919762 1665.998291,88.621162 1673.026489,68.201164 
	C1675.313477,61.556362 1678.205078,55.169483 1682.487549,49.549419 
	C1692.817993,35.992142 1708.985107,36.143238 1719.012695,49.792336 
	C1721.594604,53.306736 1723.647095,57.087051 1725.304443,61.120762 
	C1729.450684,71.212204 1731.792847,81.755508 1733.454346,92.490486 
	C1734.340454,98.215378 1734.538818,98.341431 1740.161743,97.081917 
	C1755.770874,93.585655 1771.386597,90.118774 1786.988892,86.592567 
	C1792.820190,85.274673 1793.038086,84.856049 1791.618408,79.149246 
	C1786.674072,59.273869 1778.698364,40.960011 1763.863647,26.289829 
	C1753.584961,16.125134 1741.430420,9.156876 1727.504395,5.215161 
	C1725.299805,4.591138 1722.260498,4.987164 1721.786621,1.336506 
z"/>
<path fill="#000000" opacity="1.000000" stroke="none" 
	d="
M1239.213623,274.669495 
	C1103.979126,275.000000 968.958191,275.000000 833.468628,275.000000 
	C831.959351,271.779083 834.674500,271.963776 836.349304,271.539764 
	C842.985352,269.859589 849.417969,267.732880 855.632446,264.775726 
	C874.924744,255.595673 888.599243,240.836716 898.401123,222.205154 
	C908.626099,202.769363 914.212830,181.972794 915.914978,160.135773 
	C918.196838,130.861710 916.941772,101.917000 907.372986,73.796013 
	C900.072449,52.340889 888.549988,33.757385 870.405884,19.778275 
	C861.332642,12.787823 851.072266,8.081371 840.007690,5.074891 
	C837.949280,4.515568 835.092163,4.833372 834.786255,1.331537 
	C968.687561,1.000000 1102.375122,1.000000 1236.531372,1.000000 
	C1238.109985,4.712614 1234.860352,4.082054 1233.168457,4.578438 
	C1220.433960,8.314753 1208.539673,13.566187 1198.197876,22.147875 
	C1179.952393,37.288193 1169.447266,57.201836 1162.599731,79.344200 
	C1156.049927,100.523888 1153.672485,122.372917 1154.459351,144.407349 
	C1155.397705,170.686951 1159.747559,196.373703 1172.022095,220.109283 
	C1185.647583,246.456970 1205.958862,264.573059 1235.379150,271.460938 
	C1237.046387,271.851227 1239.228149,271.772552 1239.213623,274.669495 
z"/>
<path fill="#000000" opacity="1.000000" stroke="none" 
	d="
M1682.213745,274.667725 
	C1546.979126,275.000000 1411.958130,275.000000 1276.468628,275.000000 
	C1274.897217,271.277100 1278.140137,271.823730 1279.842651,271.454285 
	C1289.881592,269.275787 1299.227661,265.517731 1307.977539,260.127136 
	C1326.134277,248.941101 1338.109619,232.602951 1346.507568,213.475403 
	C1356.563965,190.570251 1360.481689,166.423111 1360.777100,141.463516 
	C1361.071899,116.558426 1358.291138,92.241158 1349.348145,68.882576 
	C1340.537720,45.870163 1326.998535,26.532558 1305.270264,13.812613 
	C1298.026123,9.571891 1290.262573,6.643935 1282.117798,4.646623 
	C1280.329956,4.208210 1277.882324,4.476490 1277.786377,1.331650 
	C1411.687622,1.000000 1545.375122,1.000000 1679.531372,1.000000 
	C1680.890015,4.784783 1677.585083,4.368561 1675.752808,4.852704 
	C1665.323853,7.608133 1655.651367,11.919151 1647.033203,18.419741 
	C1630.462646,30.918827 1619.298828,47.377380 1612.043457,66.652580 
	C1601.712158,94.099823 1598.972656,122.674011 1600.541382,151.638321 
	C1601.659790,172.286148 1605.107788,192.668991 1613.206177,211.949265 
	C1621.642578,232.034332 1633.614014,249.264465 1652.632202,260.870605 
	C1660.249268,265.519043 1668.431885,268.613861 1676.992920,270.927979 
	C1679.052368,271.484650 1681.905640,271.168945 1682.213745,274.667725 
z"/>
<path fill="#FFFFFF" opacity="1.000000" stroke="none" 
	d="
M1277.531372,1.000000 
	C1277.108398,2.669884 1278.336670,2.785341 1279.454712,2.989505 
	C1300.982910,6.921084 1317.983032,18.101137 1331.593018,35.033737 
	C1347.054321,54.269665 1354.766602,76.539001 1359.167480,100.504547 
	C1362.448364,118.370384 1362.758545,136.321152 1361.768433,154.192673 
	C1360.459717,177.818832 1355.123657,200.734665 1343.992432,221.932877 
	C1331.867310,245.024002 1314.317505,262.014954 1289.161133,270.434265 
	C1284.628052,271.951416 1279.665771,271.875916 1275.700928,274.649719 
	C1263.979126,275.000000 1251.958130,275.000000 1239.468628,275.000000 
	C1239.002563,273.990784 1239.019165,273.225555 1237.574219,272.967834 
	C1215.202148,268.977966 1197.472778,257.514252 1183.278931,239.888229 
	C1170.024902,223.429611 1162.653931,204.455948 1158.026123,184.188187 
	C1155.666382,173.853455 1154.515991,163.377792 1153.753906,152.772125 
	C1153.231323,145.498596 1152.734253,138.230103 1153.098511,131.012451 
	C1154.536865,102.517502 1159.453491,74.908409 1173.757202,49.559559 
	C1187.102173,25.909746 1206.746216,10.643786 1232.650635,3.118368 
	C1234.298462,2.639668 1236.422974,3.814672 1237.298828,1.346982 
	C1250.354248,1.000000 1263.708496,1.000000 1277.531372,1.000000 
z"/>
<path fill="#FFFFFF" opacity="1.000000" stroke="none" 
	d="
M834.531372,1.000000 
	C834.141235,2.644969 835.307068,2.768896 836.452881,2.998931 
	C856.665466,7.056968 873.137146,17.550491 886.392029,32.997456 
	C899.287964,48.026123 906.825684,65.813934 912.082214,84.799835 
	C918.581116,108.272675 919.223389,132.268570 917.733643,156.158524 
	C916.012207,183.764359 908.872742,210.127121 893.105469,233.536331 
	C878.751099,254.847900 859.361450,268.474457 833.885986,273.081482 
	C833.335815,273.180969 832.894226,273.880920 832.700989,274.650391 
	C820.645752,275.000000 808.291565,275.000000 795.468628,275.000000 
	C795.890869,273.329193 794.663330,273.209961 793.543579,273.010986 
	C772.934937,269.348206 755.796326,259.304871 742.280029,243.606796 
	C727.169128,226.056610 718.396851,205.333282 713.942383,182.654327 
	C711.736023,171.420990 710.596497,160.149261 709.838074,148.720016 
	C708.002502,121.059067 711.477173,94.192696 721.128479,68.335831 
	C731.195374,41.365788 747.979309,19.914196 775.120972,8.007369 
	C780.262817,5.751716 785.628052,4.096568 791.148438,3.051914 
	C792.221375,2.848869 793.022888,2.585060 793.297241,1.342535 
	C806.687561,1.000000 820.375122,1.000000 834.531372,1.000000 
z"/>
<path fill="#FFFFFF" opacity="1.000000" stroke="none" 
	d="
M1682.468628,275.000000 
	C1682.792969,272.918243 1681.213745,273.230530 1680.045410,272.987732 
	C1661.758911,269.187714 1646.185059,260.516449 1633.394531,246.893478 
	C1621.331421,234.045090 1613.539307,218.668991 1608.151245,202.153702 
	C1603.475220,187.820831 1601.148682,172.967041 1599.792358,157.874771 
	C1598.852173,147.413574 1598.717285,136.985977 1599.148071,126.607864 
	C1600.119263,103.202950 1604.353027,80.430656 1613.941406,58.780182 
	C1621.860840,40.898666 1633.457520,26.200693 1649.490967,15.074261 
	C1658.157104,9.060235 1667.807129,5.155327 1678.146606,3.050297 
	C1679.212036,2.833375 1680.022705,2.586106 1680.297363,1.342434 
	C1693.687622,1.000000 1707.375122,1.000000 1721.531372,1.000000 
	C1721.142334,2.645442 1722.307983,2.766839 1723.454102,2.999533 
	C1741.557739,6.675038 1756.623657,15.782163 1768.794678,29.428459 
	C1780.473999,42.523422 1787.647583,58.168995 1791.926758,75.058578 
	C1794.976074,87.094673 1794.601685,86.800262 1782.107788,89.106499 
	C1769.770020,91.383926 1757.565308,94.416084 1745.372192,97.403152 
	C1743.745850,97.801590 1742.146118,97.741913 1740.568115,98.136414 
	C1732.665771,100.112030 1733.091064,100.031631 1731.908569,91.922440 
	C1729.600098,76.090317 1726.194580,60.441177 1715.824585,47.601391 
	C1709.420532,39.672291 1696.707153,37.302212 1686.857300,46.712944 
	C1678.637573,54.566463 1674.875488,65.005257 1672.125000,75.601746 
	C1668.275879,90.430473 1666.318970,105.556999 1665.741577,120.963051 
	C1665.445190,128.873657 1664.753784,136.825623 1665.100708,144.715927 
	C1666.086060,167.127243 1668.028687,189.437531 1676.011108,210.715988 
	C1678.935181,218.510376 1683.217896,225.710388 1690.057861,230.299255 
	C1701.020020,237.653656 1711.108154,234.837463 1719.655640,223.451859 
	C1728.187500,212.087250 1731.696411,198.383377 1733.883179,184.490219 
	C1734.284180,181.942551 1735.503662,179.495956 1735.041992,176.764923 
	C1734.670044,174.563538 1736.477295,174.849014 1737.688477,175.048584 
	C1753.500732,177.653717 1769.285156,180.434540 1785.120850,182.884995 
	C1788.440063,183.398590 1792.974487,182.410263 1794.639404,185.008041 
	C1796.287964,187.580307 1793.717163,191.459442 1793.083618,194.781326 
	C1789.816284,211.913727 1783.620972,227.728607 1773.051147,241.769989 
	C1761.312866,257.363220 1745.978882,267.288269 1727.125977,272.083099 
	C1724.551758,272.737793 1721.548950,272.124756 1719.700928,274.649719 
	C1707.645752,275.000000 1695.291504,275.000000 1682.468628,275.000000 
z"/>
<path fill="#FFFFFF" opacity="1.000000" stroke="none" 
	d="
M467.000000,161.000000 
	C467.000000,196.166626 466.932922,230.833572 467.096619,265.499420 
	C467.114319,269.247620 466.214386,270.143982 462.486420,270.098206 
	C444.655823,269.879242 426.820129,269.909119 408.988495,270.081787 
	C405.689484,270.113708 404.909729,269.199463 404.919128,265.975159 
	C404.965851,249.937408 406.709503,233.987488 407.204742,217.966690 
	C407.554932,206.638931 408.384705,195.284851 409.098938,183.951645 
	C410.270233,165.366638 410.912598,146.746445 412.299774,128.195206 
	C412.845367,120.898903 411.657196,113.461891 414.022461,105.844551 
	C409.859619,107.090767 409.577789,110.828087 408.362885,113.413170 
	C402.226196,126.471329 396.476532,139.711258 390.580353,152.882645 
	C378.983765,178.788010 367.411438,204.704315 355.765594,230.587524 
	C350.233032,242.883865 344.515625,255.097000 338.976807,267.390564 
	C337.924286,269.726685 336.344696,270.076019 334.002441,270.057526 
	C319.503387,269.943146 305.000427,269.853271 290.504669,270.100403 
	C286.754333,270.164337 285.901489,269.217041 285.907593,265.490326 
	C286.030975,190.157272 286.000000,114.823975 286.000000,39.490723 
	C286.000000,29.490734 286.107056,19.488873 285.932251,9.491940 
	C285.882385,6.639279 286.721741,5.918220 289.522156,5.936580 
	C308.187988,6.058952 326.855438,6.063171 345.521210,5.933321 
	C348.383484,5.913409 349.299072,6.726949 349.029022,9.532556 
	C347.547760,24.923098 347.842957,40.423840 346.079071,55.809616 
	C345.367828,62.013500 345.519470,68.333717 345.279785,74.569061 
	C344.911591,84.149818 344.236908,93.731606 343.840698,103.309227 
	C343.043793,122.571648 341.244781,141.789215 340.913116,161.086884 
	C340.869598,163.619812 339.408325,166.108780 340.433899,169.226929 
	C343.338348,167.210434 343.942169,163.974060 345.208221,161.287277 
	C351.228119,148.511810 357.149323,135.688980 363.002441,122.836006 
	C374.036163,98.606819 385.020172,74.354927 395.982727,50.093437 
	C401.860199,37.085857 407.703278,24.062073 413.443512,10.993620 
	C414.946716,7.571327 416.642731,5.729842 420.993439,5.854020 
	C434.815491,6.248528 448.658600,6.150274 462.487396,5.900624 
	C466.222107,5.833203 467.105469,6.758281 467.094849,10.501939 
	C466.953033,60.500980 467.000000,110.500557 467.000000,161.000000 
z"/>
<path fill="#FFFFFF" opacity="1.000000" stroke="none" 
	d="
M670.979858,6.000000 
	C682.000000,6.000000 682.000000,6.000000 682.000000,16.487118 
	C682.000000,99.311440 681.966431,182.135818 682.100159,264.959930 
	C682.106812,269.051025 681.252197,270.179688 677.026733,270.115173 
	C659.199463,269.843079 641.364380,269.884613 623.535400,270.094818 
	C619.854309,270.138184 618.883484,269.315918 618.900513,265.522278 
	C619.065979,228.693695 618.925781,191.863724 619.104126,155.035263 
	C619.124023,150.932388 618.241028,149.794144 614.020813,149.884674 
	C599.862244,150.188324 585.690674,150.142334 571.529602,149.903336 
	C567.832214,149.840942 566.884644,150.703598 566.901428,154.484085 
	C567.065247,191.312683 566.925110,228.142654 567.104858,264.971100 
	C567.124939,269.085541 566.219238,270.176239 562.015198,270.113861 
	C544.021118,269.846680 526.020142,269.916595 508.023529,270.077087 
	C504.793549,270.105896 503.919861,269.302063 503.923584,266.011047 
	C504.020172,180.687103 504.018005,95.363037 503.929810,10.039079 
	C503.926514,6.844216 504.646057,5.884202 507.973480,5.916389 
	C526.136414,6.092084 544.303345,6.113770 562.465637,5.905112 
	C566.148682,5.862800 567.122314,6.686393 567.100220,10.478864 
	C566.921509,41.141151 567.070618,71.805313 566.907471,102.467773 
	C566.887878,106.149971 567.684204,107.172119 571.481689,107.103691 
	C585.808777,106.845497 600.145752,106.858185 614.473511,107.097092 
	C618.177063,107.158852 619.120789,106.287796 619.099060,102.512733 
	C618.922791,71.850418 619.071838,41.186256 618.906189,10.523824 
	C618.886230,6.824260 619.711304,5.839078 623.489807,5.897812 
	C639.150940,6.141250 654.817993,6.000001 670.979858,6.000000 
z"/>
<path fill="#FFFFFF" opacity="1.000000" stroke="none" 
	d="
M1883.000000,208.000000 
	C1883.000000,227.662476 1882.919434,246.825623 1883.078125,265.986786 
	C1883.104980,269.234955 1882.277100,270.110016 1879.000977,270.080200 
	C1860.673096,269.913483 1842.342407,269.916412 1824.014526,270.078156 
	C1820.768433,270.106842 1819.921021,269.276978 1819.924683,266.002808 
	C1820.019897,180.688248 1820.017090,95.373566 1819.932373,10.058989 
	C1819.929199,6.902850 1820.585815,5.880095 1823.952759,5.913840 
	C1842.113647,6.095853 1860.278442,6.107270 1878.438965,5.909373 
	C1882.065063,5.869860 1883.122925,6.603452 1883.103271,10.451158 
	C1882.926270,44.942699 1883.000000,79.435532 1883.000000,113.927979 
	C1883.000000,115.207314 1883.000000,116.486649 1883.000000,118.912354 
	C1887.019653,115.092697 1887.694702,110.701042 1889.371094,107.007919 
	C1894.003784,96.802277 1898.542725,86.519829 1902.403687,76.005226 
	C1910.859375,52.977676 1921.257935,30.787762 1930.777588,8.219459 
	C1931.499878,6.507528 1931.930054,5.966800 1933.660522,5.970581 
	C1954.649414,6.016432 1975.638428,6.000323 1997.534302,6.000323 
	C1993.642822,13.035522 1990.143311,19.617647 1986.407593,26.062944 
	C1978.345337,39.973244 1970.115601,53.786404 1962.040649,67.689377 
	C1953.487915,82.414673 1945.015259,97.186646 1936.547241,111.960960 
	C1932.633667,118.789032 1928.920532,125.734779 1924.875000,132.482452 
	C1923.915649,134.082703 1924.906860,134.918594 1925.396606,135.781891 
	C1934.754883,152.277740 1944.316284,168.658905 1953.602539,185.194778 
	C1961.233032,198.782227 1968.520630,212.561844 1976.031738,226.216904 
	C1983.222900,239.290176 1990.500000,252.316193 1997.753662,265.354950 
	C1999.474854,268.448608 1999.908813,270.153259 1995.066284,270.099640 
	C1974.073486,269.867157 1953.076416,269.959442 1932.081421,270.046326 
	C1929.130615,270.058502 1927.727173,269.457825 1926.494995,266.240570 
	C1919.396362,247.703583 1911.145630,229.584656 1904.613281,210.860733 
	C1898.720947,193.970886 1891.992188,177.419052 1885.849854,160.638153 
	C1885.549194,159.816788 1885.461792,158.260956 1883.000000,157.947479 
	C1883.000000,174.548981 1883.000000,191.024490 1883.000000,208.000000 
z"/>
<path fill="#FFFFFF" opacity="1.000000" stroke="none" 
	d="
M1126.000000,11.109523 
	C1126.000000,95.928001 1125.953857,180.256363 1126.122437,264.584290 
	C1126.131836,269.307251 1124.740479,270.162201 1120.402100,270.101501 
	C1102.906616,269.856567 1085.402710,269.827179 1067.908813,270.122101 
	C1063.562012,270.195374 1062.899292,268.870544 1062.906616,264.894653 
	C1063.035400,194.399139 1062.944214,123.903160 1063.124268,53.407856 
	C1063.136353,48.667046 1061.718628,47.820183 1057.393799,47.899315 
	C1042.899536,48.164539 1028.392822,48.203407 1013.901123,47.876461 
	C1009.534302,47.777946 1008.900452,49.152920 1008.907593,53.113781 
	C1009.034912,123.609322 1008.943604,194.105301 1009.125427,264.600586 
	C1009.137695,269.359497 1007.691162,270.157379 1003.385864,270.098877 
	C985.890137,269.861145 968.388428,269.907715 950.891113,270.075775 
	C947.273865,270.110504 945.882263,269.561890 945.889526,265.378265 
	C946.036926,180.550278 946.020386,95.721947 945.929871,10.893807 
	C945.926025,7.287943 946.426697,5.875268 950.618530,5.887566 
	C1007.614624,6.054778 1064.611450,6.050019 1121.607666,5.891913 
	C1125.574341,5.880909 1126.596558,7.120280 1126.000000,11.109523 
z"/>
<path fill="#FFFFFF" opacity="1.000000" stroke="none" 
	d="
M1390.000000,154.000000 
	C1390.000000,106.001625 1390.060669,58.503044 1389.893677,11.005258 
	C1389.879028,6.848327 1390.848389,5.827908 1395.008911,5.888783 
	C1412.837891,6.149643 1430.674194,6.122168 1448.504272,5.900855 
	C1452.241089,5.854470 1453.491577,6.731206 1453.045532,10.504190 
	C1451.612671,22.623436 1451.454102,34.822464 1450.853638,46.998810 
	C1450.253418,59.170086 1449.474609,71.336197 1448.851929,83.512314 
	C1448.246460,95.350220 1447.461670,107.181564 1446.857056,119.026482 
	C1446.235718,131.197861 1445.340332,143.354507 1444.804321,155.539093 
	C1444.607788,160.008530 1443.924438,164.410324 1444.221436,170.243851 
	C1448.109985,165.155411 1449.319336,160.306656 1451.418701,155.968170 
	C1457.837402,142.703857 1463.895752,129.263748 1470.002075,115.850082 
	C1481.033325,91.618347 1491.985107,67.350449 1502.995239,43.109104 
	C1508.234131,31.574465 1513.633667,20.110889 1518.692505,8.498355 
	C1519.459351,6.737896 1519.817017,5.935537 1521.869507,5.948295 
	C1537.201782,6.043601 1552.536865,6.137060 1567.866333,5.907786 
	C1571.901611,5.847433 1570.989258,8.230558 1570.989868,10.379875 
	C1571.003052,60.044838 1571.000000,109.709808 1571.000000,159.374771 
	C1571.000000,194.540237 1570.933228,229.705994 1571.093262,264.870728 
	C1571.111328,268.807129 1570.505127,270.195953 1566.114624,270.124298 
	C1547.953491,269.827911 1529.784546,270.000000 1511.618530,270.000000 
	C1510.148682,270.000000 1508.678711,270.000000 1506.457764,270.000000 
	C1509.721191,265.430908 1508.849365,260.775269 1509.019775,256.236206 
	C1509.546021,242.225494 1510.614136,228.244019 1511.168823,214.228424 
	C1511.624023,202.726624 1512.557007,191.229401 1513.131836,179.714417 
	C1513.781006,166.709732 1514.436035,153.701233 1515.166870,140.703262 
	C1515.812378,129.223022 1517.176636,117.787903 1515.909546,105.805313 
	C1514.042236,109.625092 1512.066284,113.396294 1510.329346,117.274513 
	C1506.398804,126.051086 1502.651611,134.909897 1498.712646,143.682663 
	C1488.070312,167.384903 1477.406738,191.077774 1466.673706,214.739090 
	C1459.383911,230.809525 1451.476196,246.622910 1444.845947,262.957642 
	C1442.280640,269.277679 1438.961548,270.333435 1433.002197,270.132660 
	C1420.183960,269.700745 1407.337646,269.839539 1394.510132,270.099884 
	C1390.768799,270.175873 1389.888184,269.234619 1389.904297,265.495392 
	C1390.062622,228.497467 1390.000000,191.498596 1390.000000,154.000000 
z"/>
<path fill="#000000" opacity="1.000000" stroke="none" 
	d="
M1266.542236,231.805389 
	C1253.582886,237.807037 1243.385132,231.095551 1236.064575,218.897354 
	C1228.701172,206.627701 1225.520630,192.925278 1222.853516,178.941986 
	C1218.975586,158.610825 1219.418945,138.122681 1220.262939,117.748131 
	C1221.104858,97.422325 1224.677979,77.302315 1234.065186,58.810326 
	C1237.698364,51.653275 1242.670410,44.918819 1250.268799,42.237167 
	C1261.284790,38.349369 1268.962036,41.249718 1276.941040,51.928429 
	C1285.609253,63.529633 1289.166626,77.250656 1291.965332,91.144081 
	C1295.949829,110.923225 1296.817261,130.994644 1295.870972,151.052872 
	C1294.893066,171.778748 1292.055420,192.361877 1283.612305,211.560959 
	C1280.066772,219.623138 1275.594604,227.554276 1266.542236,231.805389 
z"/>
<path fill="#000000" opacity="1.000000" stroke="none" 
	d="
M778.001221,100.173370 
	C779.971008,89.116165 782.181458,78.576912 785.995667,68.439934 
	C790.012573,57.764305 795.306458,48.056244 805.959595,42.557758 
	C812.421143,39.222679 821.919556,40.792587 827.721741,46.127796 
	C838.131409,55.699776 842.448730,68.367622 845.885864,81.364113 
	C848.834167,92.512207 850.147278,103.960892 851.219360,115.497391 
	C852.377380,127.957619 852.481140,140.417099 851.777344,152.760376 
	C850.552368,174.243881 847.862244,195.676300 837.889343,215.260590 
	C834.040466,222.818832 829.133667,229.880844 820.596680,232.953583 
	C811.557251,236.207169 801.203552,232.099762 795.031860,223.370102 
	C786.773132,211.688339 782.919922,198.366287 779.960205,184.612411 
	C775.266479,162.800247 775.842041,140.698975 776.090942,118.626862 
	C776.158691,112.620140 777.333374,106.625900 778.001221,100.173370 
z"/>
</svg>